<svg width="70" height="63" viewBox="0 0 70 63" fill="none" xmlns="http://www.w3.org/2000/svg">
<path fill-rule="evenodd" clip-rule="evenodd" d="M23.8358 1.09676C40.9859 -3.47088 58.6141 6.64527 63.2098 23.692C66.098 34.4067 63.1499 45.309 56.3024 53.0643L65.0001 53.0605C67.7615 53.0605 70 55.2856 70 58.0303C70 60.5789 68.0698 62.6795 65.5832 62.9666L65.0001 63L38.8069 62.985L38.5413 62.9598L37.9458 62.8474L37.4476 62.6936L37.1313 62.56L36.6803 62.3355L36.198 62.0149L35.7925 61.6862L35.3885 61.2657L35.2451 61.098L35.0485 60.8247C34.9651 60.711 34.8897 60.5905 34.8195 60.4666L34.7523 60.3329C34.5044 59.8748 34.3313 59.3694 34.2438 58.8354L34.1906 58.3704L34.1785 58.0303V32.3646C34.1785 29.6199 36.417 27.3949 39.1784 27.3949C41.7425 27.3949 43.8559 29.3134 44.1447 31.7851L44.1783 32.3646L44.1814 50.4573C52.0412 45.4109 56.1025 35.7313 53.5507 26.2646C50.3845 14.5202 38.2395 7.55068 26.424 10.6976C14.6084 13.8444 7.59653 25.916 10.7625 37.6603C12.3047 43.3811 16.0238 48.1249 21.0821 51.0278C23.4735 52.4001 24.2929 55.4396 22.9122 57.8166C21.5315 60.1936 18.4736 61.008 16.0822 59.6356C8.74984 55.4278 3.33911 48.5261 1.1034 40.2328C-3.49194 23.1862 6.68572 5.66435 23.8358 1.09676Z" fill="white"/>
</svg>
